<svg width="24" height="24" viewBox="0 0 24 24" fill="none" xmlns="http://www.w3.org/2000/svg">
<path d="M4.00018 4H4.99999L6.00018 6M6.00018 6H18.7657C19.9577 6 20.8851 7.03613 20.7534 8.22086L20.1979 13.2209C20.0853 14.2337 19.2292 15 18.2101 15H8.00018C6.89561 15 6.00018 14.1046 6.00018 13V6ZM18.0002 20C18.0002 20.5523 17.5525 21 17.0002 21C16.4479 21 16.0002 20.5523 16.0002 20C16.0002 19.4477 16.4479 19 17.0002 19C17.5525 19 18.0002 19.4477 18.0002 20ZM9.00018 20C9.00018 20.5523 8.55247 21 8.00018 21C7.4479 21 7.00018 20.5523 7.00018 20C7.00018 19.4477 7.4479 19 8.00018 19C8.55247 19 9.00018 19.4477 9.00018 20Z" stroke="#000" stroke-linecap="round" stroke-linejoin="round"/>
</svg>
